HIERARCHY
ROOT Hips
{
	OFFSET 0.000000 104.274902 0.000000
	CHANNELS 6 Xposition Yposition Zposition Xrotation Yrotation Zrotation
	JOINT Spine
	{
		OFFSET 0.000000 10.181549 0.131524
		CHANNELS 6 Xposition Yposition Zposition Xrotation Yrotation Zrotation
		JOINT Spine1
		{
			OFFSET 0.000000 9.893990 -1.470706
			CHANNELS 3 Xrotation Yrotation Zrotation
			JOINT Spine2
			{
				OFFSET 0.000000 9.220787 -1.370637
				CHANNELS 3 Xrotation Yrotation Zrotation
				JOINT Neck
				{
					OFFSET 0.000000 16.740372 -2.049022
					CHANNELS 6 Xposition Yposition Zposition Xrotation Yrotation Zrotation
					JOINT Head
					{
						OFFSET 0.000000 9.617859 1.684976
						CHANNELS 6 Xposition Yposition Zposition Xrotation Yrotation Zrotation
						JOINT HeadTop_End
						{
							OFFSET 0.000000 22.037384 7.501072
							CHANNELS 6 Xposition Yposition Zposition Xrotation Yrotation Zrotation
							End Site
							{
								OFFSET 0.000000 23.106567 -2.828246
							}
						}
					}
				}
				JOINT RightShoulder
				{
					OFFSET -4.570000 11.014877 -2.160840
					CHANNELS 6 Xposition Yposition Zposition Xrotation Yrotation Zrotation
					JOINT RightArm
					{
						OFFSET -10.592867 -0.524796 -2.232105
						CHANNELS 3 Xrotation Yrotation Zrotation
						JOINT RightForeArm
						{
							OFFSET -27.841497 0.000000 -0.000002
							CHANNELS 3 Xrotation Yrotation Zrotation
							JOINT RightHand
							{
								OFFSET -28.328812 0.000000 -0.000001
								CHANNELS 3 Xrotation Yrotation Zrotation
								JOINT RightHandThumb1
								{
									OFFSET -2.464798 -1.573990 2.681911
									CHANNELS 6 Xposition Yposition Zposition Xrotation Yrotation Zrotation
									JOINT RightHandThumb2
									{
										OFFSET -3.244781 -1.873383 1.873376
										CHANNELS 3 Xrotation Yrotation Zrotation
										JOINT RightHandThumb3
										{
											OFFSET -2.646263 -1.527817 1.527818
											CHANNELS 6 Xposition Yposition Zposition Xrotation Yrotation Zrotation
											JOINT RightHandThumb4
											{
												OFFSET -1.994591 -1.151581 1.151575
												CHANNELS 6 Xposition Yposition Zposition Xrotation Yrotation Zrotation
												End Site
												{
													OFFSET -1.860176 -1.142715 1.365483
												}
											}
										}
									}
								}
								JOINT RightHandIndex1
								{
									OFFSET -9.108299 -0.517883 2.259803
									CHANNELS 6 Xposition Yposition Zposition Xrotation Yrotation Zrotation
									JOINT RightHandIndex2
									{
										OFFSET -3.699997 0.000000 0.000000
										CHANNELS 3 Xrotation Yrotation Zrotation
										JOINT RightHandIndex3
										{
											OFFSET -2.850006 0.000000 0.000000
											CHANNELS 3 Xrotation Yrotation Zrotation
											JOINT RightHandIndex4
											{
												OFFSET -2.772194 0.000000 0.000000
												CHANNELS 3 Xrotation Yrotation Zrotation
												End Site
												{
													OFFSET -2.772202 0.000000 -0.000484
												}
											}
										}
									}
								}
								JOINT RightHandMiddle1
								{
									OFFSET -9.532501 0.000000 -0.000000
									CHANNELS 6 Xposition Yposition Zposition Xrotation Yrotation Zrotation
									JOINT RightHandMiddle2
									{
										OFFSET -3.699997 0.000000 0.000000
										CHANNELS 3 Xrotation Yrotation Zrotation
										JOINT RightHandMiddle3
										{
											OFFSET -2.949997 0.000000 0.000000
											CHANNELS 3 Xrotation Yrotation Zrotation
											JOINT RightHandMiddle4
											{
												OFFSET -2.946594 0.000000 0.000000
												CHANNELS 3 Xrotation Yrotation Zrotation
												End Site
												{
													OFFSET -2.946602 0.000000 -0.000982
												}
											}
										}
									}
								}
								JOINT RightHandRing1
								{
									OFFSET -9.103600 -0.043106 -1.865100
									CHANNELS 6 Xposition Yposition Zposition Xrotation Yrotation Zrotation
									JOINT RightHandRing2
									{
										OFFSET -3.379303 0.000000 0.000000
										CHANNELS 3 Xrotation Yrotation Zrotation
										JOINT RightHandRing3
										{
											OFFSET -2.889694 0.000000 0.000000
											CHANNELS 3 Xrotation Yrotation Zrotation
											JOINT RightHandRing4
											{
												OFFSET -2.638802 0.000000 0.000000
												CHANNELS 3 Xrotation Yrotation Zrotation
												End Site
												{
													OFFSET -2.638802 0.000000 0.004218
												}
											}
										}
									}
								}
								JOINT RightHandPinky1
								{
									OFFSET -8.076698 -0.486725 -3.806299
									CHANNELS 6 Xposition Yposition Zposition Xrotation Yrotation Zrotation
									JOINT RightHandPinky2
									{
										OFFSET -3.600006 0.000000 0.000000
										CHANNELS 3 Xrotation Yrotation Zrotation
										JOINT RightHandPinky3
										{
											OFFSET -2.099998 0.000000 0.000000
											CHANNELS 3 Xrotation Yrotation Zrotation
											JOINT RightHandPinky4
											{
												OFFSET -2.115791 0.000000 0.000000
												CHANNELS 3 Xrotation Yrotation Zrotation
												End Site
												{
													OFFSET -2.115799 0.000000 0.000174
												}
											}
										}
									}
								}
							}
						}
					}
				}
				JOINT LeftShoulder
				{
					OFFSET 4.570400 11.014679 -2.160816
					CHANNELS 6 Xposition Yposition Zposition Xrotation Yrotation Zrotation
					JOINT LeftArm
					{
						OFFSET 10.592373 -0.524597 -2.232116
						CHANNELS 3 Xrotation Yrotation Zrotation
						JOINT LeftForeArm
						{
							OFFSET 27.841488 0.000000 0.000001
							CHANNELS 3 Xrotation Yrotation Zrotation
							JOINT LeftHand
							{
								OFFSET 28.328808 0.000000 -0.000000
								CHANNELS 3 Xrotation Yrotation Zrotation
								JOINT LeftHandThumb1
								{
									OFFSET 2.466103 -1.576202 2.681698
									CHANNELS 6 Xposition Yposition Zposition Xrotation Yrotation Zrotation
									JOINT LeftHandThumb2
									{
										OFFSET 3.243317 -1.872528 1.872530
										CHANNELS 3 Xrotation Yrotation Zrotation
										JOINT LeftHandThumb3
										{
											OFFSET 2.647881 -1.528763 1.528754
											CHANNELS 6 Xposition Yposition Zposition Xrotation Yrotation Zrotation
											JOINT LeftHandThumb4
											{
												OFFSET 1.998924 -1.154083 1.154080
												CHANNELS 6 Xposition Yposition Zposition Xrotation Yrotation Zrotation
												End Site
												{
													OFFSET 1.884041 -1.149155 1.337651
												}
											}
										}
									}
								}
								JOINT LeftHandIndex1
								{
									OFFSET 9.109299 -0.518005 2.259900
									CHANNELS 6 Xposition Yposition Zposition Xrotation Yrotation Zrotation
									JOINT LeftHandIndex2
									{
										OFFSET 3.699997 0.000000 0.000000
										CHANNELS 3 Xrotation Yrotation Zrotation
										JOINT LeftHandIndex3
										{
											OFFSET 2.850006 0.000000 0.000000
											CHANNELS 3 Xrotation Yrotation Zrotation
											JOINT LeftHandIndex4
											{
												OFFSET 2.774895 0.000000 0.000000
												CHANNELS 3 Xrotation Yrotation Zrotation
												End Site
												{
													OFFSET 2.774902 0.000000 -0.000072
												}
											}
										}
									}
								}
								JOINT LeftHandMiddle1
								{
									OFFSET 9.533401 0.000000 0.000000
									CHANNELS 6 Xposition Yposition Zposition Xrotation Yrotation Zrotation
									JOINT LeftHandMiddle2
									{
										OFFSET 3.699997 0.000000 0.000000
										CHANNELS 3 Xrotation Yrotation Zrotation
										JOINT LeftHandMiddle3
										{
											OFFSET 2.949997 0.000000 0.000000
											CHANNELS 3 Xrotation Yrotation Zrotation
											JOINT LeftHandMiddle4
											{
												OFFSET 2.952896 0.000000 0.000000
												CHANNELS 3 Xrotation Yrotation Zrotation
												End Site
												{
													OFFSET 2.952904 0.000000 0.000165
												}
											}
										}
									}
								}
								JOINT LeftHandRing1
								{
									OFFSET 9.104500 -0.042999 -1.865101
									CHANNELS 6 Xposition Yposition Zposition Xrotation Yrotation Zrotation
									JOINT LeftHandRing2
									{
										OFFSET 3.149994 0.000000 0.000000
										CHANNELS 3 Xrotation Yrotation Zrotation
										JOINT LeftHandRing3
										{
											OFFSET 2.950005 0.000000 0.000000
											CHANNELS 3 Xrotation Yrotation Zrotation
											JOINT LeftHandRing4
											{
												OFFSET 2.644302 0.000000 0.000000
												CHANNELS 3 Xrotation Yrotation Zrotation
												End Site
												{
													OFFSET 2.644302 0.000000 0.000083
												}
											}
										}
									}
								}
								JOINT LeftHandPinky1
								{
									OFFSET 8.077805 -0.486893 -3.806302
									CHANNELS 6 Xposition Yposition Zposition Xrotation Yrotation Zrotation
									JOINT LeftHandPinky2
									{
										OFFSET 3.600006 0.000000 0.000000
										CHANNELS 3 Xrotation Yrotation Zrotation
										JOINT LeftHandPinky3
										{
											OFFSET 2.099998 0.000000 0.000000
											CHANNELS 3 Xrotation Yrotation Zrotation
											JOINT LeftHandPinky4
											{
												OFFSET 2.125496 0.000000 0.000000
												CHANNELS 3 Xrotation Yrotation Zrotation
												End Site
												{
													OFFSET 2.125504 0.000000 -0.001254
												}
											}
										}
									}
								}
							}
						}
					}
				}
			}
		}
	}
	JOINT RightUpLeg
	{
		OFFSET -8.207800 -6.751701 -1.599544
		CHANNELS 6 Xposition Yposition Zposition Xrotation Yrotation Zrotation
		JOINT RightLeg
		{
			OFFSET 0.000004 -44.370152 0.345934
			CHANNELS 3 Xrotation Yrotation Zrotation
			JOINT RightFoot
			{
				OFFSET 0.000004 -44.423664 -3.043535
				CHANNELS 3 Xrotation Yrotation Zrotation
				JOINT RightToeBase
				{
					OFFSET 0.000001 -8.728691 10.710592
					CHANNELS 3 Xrotation Yrotation Zrotation
					JOINT RightToe_End
					{
						OFFSET 0.000000 -0.000665 9.278101
						CHANNELS 3 Xrotation Yrotation Zrotation
						End Site
						{
							OFFSET 0.000000 -0.000665 9.278103
						}
					}
				}
			}
		}
	}
	JOINT LeftUpLeg
	{
		OFFSET 8.207800 -6.751701 -1.599544
		CHANNELS 6 Xposition Yposition Zposition Xrotation Yrotation Zrotation
		JOINT LeftLeg
		{
			OFFSET 0.000004 -44.370037 0.346940
			CHANNELS 3 Xrotation Yrotation Zrotation
			JOINT LeftFoot
			{
				OFFSET 0.000004 -44.423611 -3.044388
				CHANNELS 3 Xrotation Yrotation Zrotation
				JOINT LeftToeBase
				{
					OFFSET 0.000001 -8.728690 10.710592
					CHANNELS 3 Xrotation Yrotation Zrotation
					JOINT LeftToe_End
					{
						OFFSET 0.000000 -0.000680 9.278101
						CHANNELS 3 Xrotation Yrotation Zrotation
						End Site
						{
							OFFSET 0.000000 -0.000680 9.278101
						}
					}
				}
			}
		}
	}
}
MOTION
Frames: 4
Frame Time: 0.033333
-0.622851 91.578766 -766.748901 16.960984 -158.474923 0.457349 0.000023 10.181527 0.131488 26.990331 -26.710578 -0.936136 3.676769 -4.080535 2.346744 3.971961 -3.803009 2.504030 0.000028 16.740414 -2.049041 14.107696 2.618143 3.767814 -0.000009 9.617811 1.685009 -9.642514 11.696360 2.036594 -0.000001 22.037323 7.501009 0.000001 -0.000000 -0.000000 -4.569987 11.014883 -2.160901 -6.091606 -31.349404 -0.041093 52.352061 -18.369655 82.088854 -0.000015 36.874415 0.000025 -29.841725 -32.950711 -14.486119 -2.464807 -1.573988 2.681848 -22.811228 1.252286 -5.793481 10.924159 -32.229077 -1.660962 -2.646227 -1.527857 1.527806 -7.294818 4.625588 -12.552178 -1.994551 -1.151613 1.151559 0.000001 -0.000006 -0.000001 -9.108240 -0.517942 2.259730 8.888666 -3.699915 21.666992 0.405254 -1.901893 24.056018 0.211808 -1.389930 17.328530 0.000000 0.000001 -0.000001 -9.532454 -0.000037 -0.000063 1.097979 -6.701417 30.534972 0.679663 -2.424517 31.316202 0.259598 -1.534637 19.200504 -0.000004 -0.000003 -0.000002 -9.103610 -0.043119 -1.865145 0.513979 -13.397983 27.358172 1.413324 -3.343444 45.819303 0.327270 -1.716611 21.585725 0.000001 -0.000001 0.000003 -8.076681 -0.486758 -3.806359 5.259486 -11.624396 34.302798 0.744702 -2.528164 32.820797 0.412535 -1.918142 24.274873 -0.000000 -0.000003 0.000000 4.570417 11.014712 -2.160885 1.739113 -9.759374 11.678701 -45.504438 -24.526123 -12.456187 -0.000049 -95.783697 -0.000070 -10.843598 -32.580907 -17.100156 2.466101 -1.576195 2.681750 -0.172243 13.287793 10.842438 6.591451 17.145312 1.771094 2.647891 -1.528732 1.528828 -7.239821 -7.502827 6.885737 1.998893 -1.154068 1.154117 -0.000000 0.000001 0.000000 9.109299 -0.518021 2.259965 -6.067593 -2.700284 -7.120388 0.465598 2.290762 -22.976480 0.232568 1.635975 -16.182631 0.000000 0.000001 0.000005 9.533419 0.000043 0.000099 2.542507 9.349249 -16.426738 0.367103 2.043134 -20.372117 0.026045 -0.552222 5.396787 0.000000 -0.000001 0.000001 9.104510 -0.042966 -1.865033 0.619148 2.772889 -13.285488 0.490074 2.347599 -23.581182 0.420593 2.181694 -21.823349 0.000002 0.000002 -0.000002 8.077813 -0.486865 -3.806168 1.145299 12.093355 -17.403979 0.262186 1.734714 -17.189503 0.072761 0.921504 -9.030345 0.000001 0.000001 0.000002 -8.207762 -6.751695 -1.599618 -58.431701 -1.081693 -16.535190 47.049256 -9.336157 10.050955 -5.973792 -3.710016 0.899187 -11.505067 -0.000003 0.000000 -0.000003 0.000001 0.000000 8.207829 -6.751712 -1.599550 -13.638452 5.137520 2.207373 61.411016 5.585643 5.801069 -27.257533 -7.164290 -0.899302 -5.984569 0.000007 0.000004 0.000000 0.000002 0.000000 
-0.316473 90.552841 -785.437988 13.659939 -159.759450 1.352145 0.000053 10.181563 0.131535 18.767601 -27.556260 -3.407438 4.152121 -4.093927 1.898869 4.443226 -3.865981 2.013527 -0.000034 16.740376 -2.049114 15.573011 3.368757 3.125676 0.000028 9.617912 1.684938 -11.530836 15.741172 0.467395 -0.000001 22.037308 7.500957 -0.000000 0.000000 -0.000000 -4.570009 11.014876 -2.160839 -6.590466 -32.342889 0.039172 48.960299 -7.248876 85.997013 -0.000002 41.671268 0.000026 -35.810955 -25.479930 -15.659141 -2.464750 -1.573962 2.681915 -25.831330 1.128236 -7.068919 9.769467 -29.786004 -2.107238 -2.646243 -1.527896 1.527796 -6.512016 2.696516 -12.632529 -1.994619 -1.151600 1.151584 0.000003 -0.000007 -0.000004 -9.108224 -0.517856 2.259808 11.505560 -2.982938 27.129971 0.526729 -2.153309 27.487910 0.302935 -1.653818 20.758540 -0.000001 0.000000 0.000001 -9.532467 -0.000008 0.000009 1.248905 -6.802199 36.079163 0.861380 -2.700357 35.378666 0.379211 -1.842422 23.258374 -0.000001 0.000000 0.000000 -9.103529 -0.043103 -1.865098 0.831603 -12.831445 34.970131 1.758251 -3.646475 51.472954 0.457440 -2.014640 25.582740 -0.000003 0.000001 0.000001 -8.076661 -0.486703 -3.806293 4.708701 -11.402308 36.156091 0.971813 -2.849314 37.659354 0.526952 -2.153697 27.493521 0.000003 -0.000001 0.000002 4.570395 11.014716 -2.160815 2.227673 -13.847927 10.531984 -42.612133 -24.352824 -25.428758 -0.000000 -103.882184 -0.000001 -0.792354 -22.138875 -20.455957 2.466116 -1.576231 2.681772 -1.174923 11.143565 12.417624 6.593357 17.159424 1.772355 2.647902 -1.528757 1.528670 -6.842299 -6.227184 7.151858 1.998954 -1.154036 1.154071 -0.000002 -0.000002 0.000000 9.109307 -0.518047 2.259993 -5.662766 -2.833410 -3.861465 0.523649 2.423018 -24.388077 0.254627 1.710098 -16.937983 -0.000000 -0.000000 -0.000005 9.533404 -0.000062 0.000009 2.305088 10.154934 -12.599040 0.498688 2.367232 -23.790601 0.003372 -0.198859 1.940834 0.000002 -0.000000 -0.000002 9.104502 -0.043021 -1.865091 2.139764 4.758986 -13.922054 0.520221 2.415459 -24.306953 0.471828 2.305416 -23.131911 0.000000 -0.000000 0.000000 8.077805 -0.486944 -3.806259 0.929915 12.020956 -15.217153 0.292544 1.829939 -18.165703 0.121388 1.187738 -11.672397 0.000002 0.000001 -0.000000 -8.207723 -6.751676 -1.599608 -57.976790 -1.405441 -15.794273 46.553313 -9.367456 10.064635 -3.606618 -6.781904 5.505454 -5.480922 0.000000 -0.000004 -0.000002 -0.000000 0.000001 8.207877 -6.751676 -1.599580 -7.323055 0.262848 2.987812 66.103787 7.574469 6.754280 -21.442371 -7.941632 -23.313343 -22.768115 -0.470899 6.684337 -0.000000 0.000000 0.000001 
-0.239612 90.279411 -805.245483 6.144051 -160.686539 1.370088 -0.000032 10.181568 0.131514 6.537089 -26.949893 -3.498704 4.978873 -3.785825 1.894529 5.238924 -3.657200 1.909383 -0.000003 16.740349 -2.049087 16.232151 3.361104 1.942900 -0.000029 9.617819 1.684990 -12.542117 16.541282 -2.048042 0.000003 22.037338 7.501058 0.000000 0.000000 0.000000 -4.570028 11.014849 -2.161000 -6.729108 -33.688682 0.905194 35.164679 4.751079 85.313448 -0.000015 39.899127 0.000044 -36.332901 -12.784681 -16.130759 -2.464787 -1.573931 2.681924 -29.231345 1.109397 -8.612188 8.065365 -25.914872 -2.730297 -2.646255 -1.527750 1.527830 -5.710449 0.727640 -12.671647 -1.994537 -1.151511 1.151555 0.000003 0.000006 -0.000000 -9.108297 -0.517766 2.259799 11.389328 -3.096729 26.268428 0.547332 -2.192407 28.031221 0.318801 -1.695069 21.301531 -0.000002 0.000002 0.000003 -9.532529 0.000161 -0.000025 1.201170 -6.388460 35.970621 0.904291 -2.759714 36.279537 0.408677 -1.909481 24.158183 0.000002 -0.000000 0.000002 -9.103585 -0.043042 -1.865085 0.951475 -12.530697 35.387145 1.811523 -3.688185 52.305872 0.489581 -2.080389 26.482192 0.000001 0.000001 0.000000 -8.076723 -0.486609 -3.806314 4.277643 -11.224438 33.677563 0.960989 -2.835256 37.441215 0.521314 -2.142859 27.343387 -0.000003 -0.000000 -0.000000 4.570369 11.014671 -2.160950 2.263374 -16.691912 7.985643 -31.421479 -24.090151 -37.384863 0.000014 -109.499701 0.000019 10.916014 -10.558334 -23.390230 2.466106 -1.576178 2.681639 -3.742464 4.954112 11.340528 6.595351 17.174325 1.773698 2.647913 -1.528777 1.528693 -6.301466 -4.578969 7.394762 1.998939 -1.154036 1.154107 0.000002 -0.000004 -0.000003 9.109298 -0.518000 2.259879 -5.363329 -2.709925 -1.544890 0.576785 2.536852 -25.616099 0.272000 1.766114 -17.510795 -0.000001 -0.000001 0.000004 9.533403 0.000042 -0.000058 2.223775 11.472736 -9.848169 0.661560 2.706395 -27.469305 0.002763 0.180310 -1.759834 -0.000000 0.000000 -0.000001 9.104500 -0.042934 -1.865245 3.560512 6.725658 -16.548730 0.537124 2.452490 -24.704787 0.514822 2.403457 -24.178277 0.000000 -0.000000 0.000001 8.077800 -0.486880 -3.806451 0.094427 11.282569 -15.072221 0.309201 1.879915 -18.680245 0.172695 1.413447 -13.932399 0.000000 0.000000 -0.000003 -8.207827 -6.751686 -1.599558 -59.445479 -1.084799 -15.442284 54.201550 -9.399628 10.031203 1.640747 -8.162090 9.849690 -2.096535 -0.000003 0.000009 0.000000 0.000001 -0.000001 8.207777 -6.751666 -1.599555 -3.939197 0.518392 1.973323 64.449808 -3.094272 9.286389 6.455885 -7.993305 -30.566398 -46.344527 -0.706115 7.798815 -0.000002 0.000003 -0.000000 
-0.187348 89.495102 -823.943420 -1.201779 -161.068783 0.722058 -0.000034 10.181553 0.131564 -2.619326 -25.605986 -2.123476 5.438063 -3.303665 2.187334 5.678605 -3.270970 2.149574 -0.000001 16.740360 -2.049127 16.699865 2.986303 1.590795 -0.000027 9.617868 1.684951 -16.148895 14.762301 -2.569267 0.000007 22.037399 7.501011 -0.000001 -0.000000 -0.000000 -4.570008 11.014854 -2.160937 -5.794048 -36.077151 4.018597 16.269949 18.617344 79.669970 -0.000007 27.718610 0.000053 -32.674744 2.361643 -19.211797 -2.464772 -1.574072 2.681888 -28.814475 1.104411 -8.417025 7.560253 -24.702259 -2.907002 -2.646285 -1.527810 1.527826 -5.048851 -0.887940 -12.671478 -1.994649 -1.151560 1.151581 0.000001 -0.000006 -0.000001 -9.108288 -0.518005 2.259794 9.979553 -3.554869 22.906160 0.506143 -2.113305 26.935117 0.287184 -1.611702 20.206058 0.000003 -0.000004 -0.000001 -9.532489 -0.000075 -0.000011 1.010721 -5.807106 32.938912 0.871492 -2.714513 35.592748 0.386117 -1.858407 23.472210 -0.000002 0.000004 0.000001 -9.103575 -0.043130 -1.865147 0.874042 -12.096356 31.897441 1.731008 -3.624688 51.043523 0.475949 -2.052835 26.104431 0.000000 0.000003 -0.000000 -8.076682 -0.486754 -3.806342 3.688131 -11.474191 26.816772 0.831500 -2.657807 34.739401 0.454924 -2.009385 25.511112 -0.000001 0.000001 -0.000003 4.570391 11.014680 -2.160922 1.894118 -17.247869 5.122706 -13.005823 -29.695644 -45.305423 0.000012 -107.877114 0.000025 24.861383 -1.024205 -15.973615 2.466088 -1.576224 2.681843 -5.092321 -0.762437 10.154705 6.597403 17.189532 1.775061 2.647930 -1.528729 1.528667 -6.265773 -4.194751 7.682335 1.998912 -1.154101 1.154183 0.000003 0.000004 0.000002 9.109297 -0.518026 2.259995 -5.063060 -2.617310 1.091395 0.616442 2.617899 -26.498052 0.279594 1.789976 -17.755362 -0.000007 -0.000001 -0.000002 9.533384 -0.000021 0.000175 1.713556 11.544612 -7.415645 0.761710 2.890689 -29.520474 0.015567 0.427470 -4.174998 -0.000004 0.000001 -0.000003 9.104504 -0.043031 -1.864983 3.969864 7.541058 -17.392124 0.507537 2.387199 -24.004070 0.517980 2.410481 -24.253612 -0.000001 -0.000000 -0.000000 8.077785 -0.486924 -3.806187 -0.275518 10.930191 -17.605374 0.282710 1.799691 -17.855074 0.196978 1.507956 -14.885115 -0.000000 0.000000 -0.000004 -8.207850 -6.751703 -1.599465 -58.067154 -1.967605 -14.752082 61.088071 -9.892259 10.069047 7.201559 -4.837026 9.265556 -0.994668 -0.000006 0.000002 0.000001 -0.000000 -0.000001 8.207778 -6.751713 -1.599511 -9.371095 0.531975 0.685336 79.829421 -7.976081 9.979198 19.260543 -8.831626 -28.302241 -30.320606 0.000000 0.000002 -0.000000 -0.000002 0.000004 
